<?xml version="1.0" encoding="UTF-8"?>
<svg width="24px" height="24px" viewBox="0 0 24 24" version="1.1" xmlns="http://www.w3.org/2000/svg" xmlns:xlink="http://www.w3.org/1999/xlink">
    <title>icons_filled_gift</title>
    <g id="页面-1" stroke="none" stroke-width="1" fill="none" fill-rule="evenodd">
        <g id="编组" transform="translate(0.000000, 0.000000)" fill="#000000">
            <g id="icon-fill-gift" transform="translate(-0.000000, 0.000000)">
                <path d="M4,13.2 L11.4,13.199 L11.4,21 L4.5,21 C4.22385763,21 4,20.7761424 4,20.5 L4,13.2 Z M20,13.2 L20,20.5 C20,20.7761424 19.7761424,21 19.5,21 L12.6,21 L12.6,13.199 L20,13.2 Z M14.5,3 C15.8807119,3 17,4.11928813 17,5.5 C17,6.06323916 16.8137392,6.58297478 16.4994531,7.00097133 L20.5,7 C20.7761424,7 21,7.22385763 21,7.5 L21,11.5 C21,11.7761424 20.7761424,12 20.5,12 L20,12 L20,12 L12.6,11.999 L12.6,7 L11.4,7 L11.4,11.999 L4,12 L4,12 L3.5,12 C3.22385763,12 3,11.7761424 3,11.5 L3,7.5 C3,7.22385763 3.22385763,7 3.5,7 L7.50054687,7.00097133 C7.1862608,6.58297478 7,6.06323916 7,5.5 C7,4.11928813 8.11928813,3 9.5,3 C10.8443774,3 11.9409091,4.06115335 11.9976902,5.39155519 L12,5.5 L12.0023098,5.39155519 C12.0590909,4.06115335 13.1556226,3 14.5,3 Z M9.5,4.2 C8.78202983,4.2 8.2,4.78202983 8.2,5.5 C8.2,6.21797017 8.78202983,6.8 9.5,6.8 L10.800132,6.8 L10.8002721,5.5255529 L10.7987817,5.44272428 C10.7692102,4.74985489 10.1968189,4.2 9.5,4.2 Z M14.5,4.2 C13.8031811,4.2 13.2307898,4.74985489 13.2012183,5.44272428 L13.2012183,5.44272428 L13.1997279,5.5255529 L13.199868,6.8 L14.5,6.8 C15.2179702,6.8 15.8,6.21797017 15.8,5.5 C15.8,4.78202983 15.2179702,4.2 14.5,4.2 Z" id="形状结合"></path>
            </g>
        </g>
    </g>
</svg>